<!-- sample rectangle -->
<svg id="logo-cdsu" xmlns="http://www.w3.org/2000/svg" viewBox="0 0 413.27 96.8">
                                <defs>
                                    <style>
                                    .cdsu-1 {
                                        fill: #2235a5;
                                        fill-rule: evenodd;
                                    }

                                    .cdsu-2 {
                                        fill: #4f5454;
                                    }

                                    .cdsu-3 {
                                        fill: #afb2ba;
                                    }
                                    </style>
                                </defs>
                                <title>logo</title>
                                <path class="cdsu-1" d="M199.31,59s103.12-55,41.37-57C195.63.45,128.17,24,74.59,56,130.52,30.63,269.77-.13,199.31,59Z" transform="translate(-1.09 -1.85)"></path>
                                <path class="cdsu-1" d="M62.17,41.56s-103.13,55-41.38,57c45.06,1.47,112.51-22,166.1-54.09C131,69.89-8.29,100.65,62.17,41.56Z" transform="translate(-1.09 -1.85)"></path>
                                <g>
                                    <path class="cdsu-2" d="M297.8,35.49a15.5,15.5,0,0,1-6.41,1.15c-6.84,0-12-4.31-12-12.27,0-7.59,5.15-12.74,12.67-12.74a13,13,0,0,1,5.76,1.08l-.75,2.55a11.52,11.52,0,0,0-4.9-1c-5.68,0-9.46,3.63-9.46,10,0,5.94,3.42,9.76,9.32,9.76a12.55,12.55,0,0,0,5.11-1Z" transform="translate(-1.09 -1.85)"></path>
                                    <path class="cdsu-2" d="M321.7,23.9c0,8.35-5.07,12.78-11.27,12.78-6.4,0-10.9-5-10.9-12.31,0-7.7,4.79-12.74,11.26-12.74C317.42,11.63,321.7,16.7,321.7,23.9Zm-18.82.4c0,5.18,2.8,9.83,7.74,9.83s7.77-4.58,7.77-10.08c0-4.83-2.52-9.87-7.74-9.87S302.88,19,302.88,24.3Z" transform="translate(-1.09 -1.85)"></path>
                                    <path class="cdsu-2" d="M325.77,12h3.13V33.66h10.37v2.62h-13.5Z" transform="translate(-1.09 -1.85)"></path>
                                    <path class="cdsu-2" d="M342.76,12h3.13V33.66h10.37v2.62h-13.5Z" transform="translate(-1.09 -1.85)"></path>
                                    <path class="cdsu-2" d="M372.32,24.91h-9.43v8.75H373.4v2.62H359.75V12h13.11v2.63h-10v7.67h9.43Z" transform="translate(-1.09 -1.85)"></path>
                                    <path class="cdsu-2" d="M395.93,35.2a22.35,22.35,0,0,1-7.45,1.34c-3.67,0-6.69-.94-9.07-3.21a12.45,12.45,0,0,1-3.38-9c0-7.24,5-12.53,13.14-12.53a14.85,14.85,0,0,1,6,1.12l-.75,2.55a12.72,12.72,0,0,0-5.37-1c-5.9,0-9.75,3.67-9.75,9.75s3.71,9.8,9.36,9.8a10.18,10.18,0,0,0,4.17-.65V26.06h-4.93V23.54h8Z" transform="translate(-1.09 -1.85)"></path>
                                    <path class="cdsu-2" d="M413.28,24.91h-9.43v8.75h10.51v2.62H400.72V12h13.1v2.63h-10v7.67h9.43Z" transform="translate(-1.09 -1.85)"></path>
                                    <path class="cdsu-2" d="M280.84,43.35a44.6,44.6,0,0,1,6.66-.51c4.5,0,7.71,1,9.83,3s3.42,4.79,3.42,8.71-1.22,7.2-3.49,9.43-6,3.49-10.73,3.49a50.65,50.65,0,0,1-5.69-.29ZM284,64.8a19,19,0,0,0,3.16.18c6.7,0,10.33-3.74,10.33-10.29,0-5.73-3.2-9.36-9.82-9.36a17.77,17.77,0,0,0-3.67.32Z" transform="translate(-1.09 -1.85)"></path>
                                    <path class="cdsu-2" d="M308,43V57.39c0,5.43,2.41,7.74,5.65,7.74,3.6,0,5.91-2.38,5.91-7.74V43h3.16V57.17c0,7.45-3.92,10.51-9.18,10.51-5,0-8.71-2.84-8.71-10.37V43Z" transform="translate(-1.09 -1.85)"></path>
                                    <path class="cdsu-2" d="M335.31,63.47a11.17,11.17,0,0,0,5.62,1.58c3.2,0,5.07-1.69,5.07-4.14,0-2.26-1.29-3.56-4.57-4.82-4-1.4-6.41-3.46-6.41-6.87,0-3.78,3.14-6.59,7.85-6.59a10.93,10.93,0,0,1,5.36,1.19l-.86,2.55a9.68,9.68,0,0,0-4.61-1.15c-3.31,0-4.57,2-4.57,3.64,0,2.26,1.48,3.38,4.82,4.67,4.11,1.59,6.2,3.57,6.2,7.13,0,3.74-2.78,7-8.5,7a12.59,12.59,0,0,1-6.19-1.55Z" transform="translate(-1.09 -1.85)"></path>
                                    <path class="cdsu-2" d="M356.62,43V57.39c0,5.43,2.42,7.74,5.65,7.74,3.6,0,5.91-2.38,5.91-7.74V43h3.17V57.17c0,7.45-3.93,10.51-9.18,10.51-5,0-8.71-2.84-8.71-10.37V43Z" transform="translate(-1.09 -1.85)"></path>
                                    <path class="cdsu-2" d="M376.78,43.35a44.6,44.6,0,0,1,6.66-.51c4.5,0,7.71,1,9.83,3s3.42,4.79,3.42,8.71A12.86,12.86,0,0,1,393.2,64c-2.27,2.27-6,3.49-10.73,3.49a50.65,50.65,0,0,1-5.69-.29Zm3.14,21.45a19,19,0,0,0,3.16.18c6.7,0,10.33-3.74,10.33-10.29,0-5.73-3.2-9.36-9.82-9.36a17.77,17.77,0,0,0-3.67.32Z" transform="translate(-1.09 -1.85)"></path>
                                </g>
                                <g>
                                    <path class="cdsu-3" d="M280.93,73.34a16.86,16.86,0,0,1,3.18-.28,5.57,5.57,0,0,1,3.7,1,2.83,2.83,0,0,1,1.12,2.38,3.2,3.2,0,0,1-2.28,3v0a3.47,3.47,0,0,1,2.78,3.38,3.63,3.63,0,0,1-1.14,2.7c-.94.86-2.46,1.26-4.66,1.26a20.34,20.34,0,0,1-2.7-.16Zm1.74,5.52h1.58c1.84,0,2.92-1,2.92-2.26,0-1.58-1.2-2.2-3-2.2a7.46,7.46,0,0,0-1.54.12Zm0,6.46a9.3,9.3,0,0,0,1.46.08c1.8,0,3.46-.66,3.46-2.62s-1.58-2.6-3.48-2.6h-1.44Z" transform="translate(-1.09 -1.85)"></path>
                                    <path class="cdsu-3" d="M297.51,73.16v8c0,3,1.34,4.3,3.14,4.3,2,0,3.28-1.32,3.28-4.3v-8h1.76V81c0,4.14-2.18,5.84-5.1,5.84-2.76,0-4.84-1.58-4.84-5.76V73.16Z" transform="translate(-1.09 -1.85)"></path>
                                    <path class="cdsu-3" d="M312.71,73.16h1.74v12h5.76v1.46h-7.5Z" transform="translate(-1.09 -1.85)"></path>
                                    <path class="cdsu-3" d="M326.15,73.16h1.74v12h5.76v1.46h-7.5Z" transform="translate(-1.09 -1.85)"></path>
                                    <path class="cdsu-3" d="M346.57,80.32h-5.24v4.86h5.84v1.46h-7.58V73.16h7.28v1.46h-5.54v4.26h5.24Z" transform="translate(-1.09 -1.85)"></path>
                                </g>
                            </svg>